<svg width="55" height="56" viewBox="0 0 55 56" fill="none" xmlns="http://www.w3.org/2000/svg"> <path d="M27.5 46.6842V16.0176C27.5 13.1892 27.5 11.7749 26.6213 10.8963C25.7426 10.0176 24.3284 10.0176 21.5 10.0176H8.875C7.93219 10.0176 7.46079 10.0176 7.16789 10.3105C6.875 10.6034 6.875 11.0748 6.875 12.0176V37.8092C6.875 38.7521 6.875 39.2235 7.16789 39.5163C7.46079 39.8092 7.93219 39.8092 8.875 39.8092H21.5C24.3284 39.8092 25.7426 39.8092 26.6213 40.6879C27.5 41.5666 27.5 42.9808 27.5 45.8092V46.6842Z" stroke="white" stroke-width="2"/> <path d="M27.5 46.6842V16.0176C27.5 13.1892 27.5 11.7749 28.3787 10.8963C29.2574 10.0176 30.6716 10.0176 33.5 10.0176H46.125C47.0678 10.0176 47.5392 10.0176 47.8321 10.3105C48.125 10.6034 48.125 11.0748 48.125 12.0176V37.8092C48.125 38.7521 48.125 39.2235 47.8321 39.5163C47.5392 39.8092 47.0678 39.8092 46.125 39.8092H33.5C30.6716 39.8092 29.2574 39.8092 28.3787 40.6879C27.5 41.5666 27.5 42.9808 27.5 45.8092V46.6842Z" stroke="white" stroke-width="2"/> </svg>