<svg width="49" height="48" viewBox="0 0 49 48" fill="none" xmlns="http://www.w3.org/2000/svg">
<path d="M1.32698 2.63803L2.21799 3.09202L1.32698 2.63803ZM1.77803 46.3845L1.04908 45.7L1.04908 45.7L1.77803 46.3845ZM45.862 36.9833L45.408 36.0923L45.862 36.9833ZM47.173 35.6723L48.064 36.1263L47.173 35.6723ZM47.173 2.63803L48.064 2.18404V2.18404L47.173 2.63803ZM45.862 1.32698L45.408 2.21799V2.21799L45.862 1.32698ZM2.63803 1.32698L3.09202 2.21799L2.63803 1.32698ZM10.0037 37.6257L10.7326 38.3103L10.0037 37.6257ZM2 5.8C2 4.94342 2.00078 4.36113 2.03755 3.91104C2.07337 3.47262 2.1383 3.24842 2.21799 3.09202L0.435974 2.18404C0.188683 2.66937 0.0901188 3.18608 0.0441936 3.74817C-0.000777721 4.2986 0 4.97642 0 5.8H2ZM2 20.8055V5.8H0V20.8055H2ZM0 20.8055V37.3102H2V20.8055H0ZM0 37.3102V37.3103H2V37.3102H0ZM0 37.3103V46.0765H2V37.3103H0ZM0 46.0765C0 47.3903 1.60754 48.0268 2.50697 47.0691L1.04908 45.7C1.39024 45.3367 2 45.5781 2 46.0765H0ZM2.50697 47.0691L10.7326 38.3103L9.27471 36.9412L1.04908 45.7L2.50697 47.0691ZM42.7 36.3103H10.7326V38.3103H42.7V36.3103ZM45.408 36.0923C45.2516 36.172 45.0274 36.2369 44.589 36.2727C44.1389 36.3095 43.5566 36.3103 42.7 36.3103V38.3103C43.5236 38.3103 44.2014 38.3111 44.7518 38.2661C45.3139 38.2202 45.8306 38.1216 46.316 37.8743L45.408 36.0923ZM46.282 35.2183C46.0903 35.5946 45.7843 35.9006 45.408 36.0923L46.316 37.8743C47.0686 37.4908 47.6805 36.8789 48.064 36.1263L46.282 35.2183ZM46.5 32.5103C46.5 33.3669 46.4992 33.9492 46.4624 34.3993C46.4266 34.8377 46.3617 35.0619 46.282 35.2183L48.064 36.1263C48.3113 35.6409 48.4099 35.1242 48.4558 34.5621C48.5008 34.0117 48.5 33.3339 48.5 32.5103H46.5ZM46.5 5.8V32.5103H48.5V5.8H46.5ZM46.282 3.09202C46.3617 3.24842 46.4266 3.47262 46.4624 3.91104C46.4992 4.36113 46.5 4.94342 46.5 5.8H48.5C48.5 4.97642 48.5008 4.2986 48.4558 3.74817C48.4099 3.18608 48.3113 2.66937 48.064 2.18404L46.282 3.09202ZM45.408 2.21799C45.7843 2.40973 46.0903 2.7157 46.282 3.09202L48.064 2.18404C47.6805 1.43139 47.0686 0.819467 46.316 0.435974L45.408 2.21799ZM42.7 2C43.5566 2 44.1389 2.00078 44.589 2.03755C45.0274 2.07337 45.2516 2.1383 45.408 2.21799L46.316 0.435974C45.8306 0.188683 45.3139 0.0901188 44.7518 0.0441937C44.2014 -0.000777721 43.5236 0 42.7 0V2ZM5.8 2H42.7V0H5.8V2ZM3.09202 2.21799C3.24842 2.1383 3.47262 2.07337 3.91104 2.03755C4.36113 2.00078 4.94342 2 5.8 2V0C4.97642 0 4.2986 -0.000777721 3.74817 0.0441936C3.18608 0.0901188 2.66937 0.188683 2.18404 0.435974L3.09202 2.21799ZM2.21799 3.09202C2.40973 2.71569 2.71569 2.40973 3.09202 2.21799L2.18404 0.435974C1.43139 0.819467 0.819467 1.43139 0.435974 2.18404L2.21799 3.09202ZM10.7326 38.3103H10.7326V36.3103C10.1804 36.3103 9.65274 36.5386 9.27471 36.9412L10.7326 38.3103Z" fill="white"/>
</svg>
