<svg width="21" height="20" viewBox="0 0 21 20" fill="none" xmlns="http://www.w3.org/2000/svg">
<path fill-rule="evenodd" clip-rule="evenodd" d="M2.75203 8C2.58751 8.63924 2.5 9.3094 2.5 10C2.5 10.6906 2.58751 11.3608 2.75204 12H6.60516C6.53772 11.3727 6.5 10.7062 6.5 10C6.5 9.2938 6.53772 8.62727 6.60516 8H2.75203ZM3.57026 6H6.94148C7.24649 4.6871 7.67396 3.60504 8.10763 2.74755C8.18837 2.58792 8.26925 2.4362 8.3495 2.29235C6.31403 2.85906 4.60548 4.21041 3.57026 6ZM10.5 2.60481C10.3126 2.88536 10.1032 3.23336 9.89237 3.65018C9.57677 4.27421 9.25653 5.0555 9.00286 6H11.9971C11.7435 5.0555 11.4232 4.27421 11.1076 3.65018C10.8968 3.23336 10.6874 2.88536 10.5 2.60481ZM12.3818 8H8.6182C8.54305 8.61843 8.5 9.28479 8.5 10C8.5 10.7152 8.54305 11.3816 8.6182 12H12.3818C12.4569 11.3816 12.5 10.7152 12.5 10C12.5 9.28479 12.4569 8.61843 12.3818 8ZM14.3948 12C14.4623 11.3727 14.5 10.7062 14.5 10C14.5 9.2938 14.4623 8.62727 14.3948 8H18.248C18.4125 8.63924 18.5 9.3094 18.5 10C18.5 10.6906 18.4125 11.3608 18.248 12H14.3948ZM11.9971 14H9.00286C9.25653 14.9445 9.57677 15.7258 9.89237 16.3498C10.1032 16.7666 10.3126 17.1146 10.5 17.3952C10.6874 17.1146 10.8968 16.7666 11.1076 16.3498C11.4232 15.7258 11.7435 14.9445 11.9971 14ZM8.34951 17.7077C8.26925 17.5638 8.18837 17.4121 8.10763 17.2524C7.67396 16.395 7.24649 15.3129 6.94148 14H3.57026C4.60548 15.7896 6.31403 17.1409 8.34951 17.7077ZM12.6505 17.7076C12.7308 17.5638 12.8116 17.4121 12.8924 17.2524C13.326 16.395 13.7535 15.3129 14.0585 14H17.4297C16.3945 15.7896 14.686 17.1409 12.6505 17.7076ZM17.4297 6H14.0585C13.7535 4.6871 13.326 3.60504 12.8924 2.74755C12.8116 2.58792 12.7308 2.4362 12.6505 2.29235C14.686 2.85906 16.3945 4.21041 17.4297 6ZM0.5 10C0.5 4.47715 4.97715 0 10.5 0C16.0228 0 20.5 4.47715 20.5 10C20.5 15.5228 16.0228 20 10.5 20C4.97715 20 0.5 15.5228 0.5 10ZM2.4615 7.92522C2.49562 7.79266 2.61515 7.7 2.75203 7.7H6.60516C6.69031 7.7 6.77144 7.73618 6.82834 7.79953C6.88524 7.86287 6.91254 7.94741 6.90344 8.03207C6.83715 8.64868 6.8 9.3045 6.8 10C6.8 10.6955 6.83715 11.3513 6.90344 11.9679C6.91254 12.0526 6.88524 12.1371 6.82834 12.2005C6.77144 12.2638 6.69031 12.3 6.60516 12.3H2.75204C2.61515 12.3 2.49562 12.2073 2.4615 12.0748C2.29074 11.4113 2.2 10.716 2.2 10C2.2 9.28396 2.29074 8.58869 2.4615 7.92522ZM7.2337 6.06789C7.20212 6.2038 7.08101 6.3 6.94148 6.3H3.57026C3.46303 6.3 3.36396 6.24277 3.31039 6.14989C3.25681 6.05701 3.25689 5.9426 3.31058 5.84978C4.38436 3.99352 6.15659 2.59148 8.26904 2.00334C8.38567 1.97087 8.51039 2.01168 8.58526 2.10682C8.66013 2.20197 8.67047 2.33278 8.61149 2.43851C8.53318 2.57888 8.45421 2.727 8.37534 2.88295C7.95176 3.72048 7.53291 4.77996 7.2337 6.06789ZM10.5 2.30481C10.6002 2.30481 10.6938 2.35485 10.7495 2.43818C10.9431 2.72816 11.1588 3.08656 11.3753 3.51478C11.6996 4.15596 12.0275 4.95649 12.2869 5.92219C12.3111 6.01229 12.292 6.10853 12.2352 6.18256C12.1784 6.25659 12.0904 6.3 11.9971 6.3H9.00286C8.90957 6.3 8.82158 6.25659 8.76481 6.18256C8.70803 6.10853 8.68893 6.01229 8.71313 5.92219C8.97248 4.95649 9.30038 4.15596 9.62466 3.51478C9.84123 3.08656 10.0568 2.72816 10.2505 2.43818C10.3062 2.35485 10.3998 2.30481 10.5 2.30481ZM8.32039 7.96381C8.33869 7.81323 8.46651 7.7 8.6182 7.7H12.3818C12.5335 7.7 12.6613 7.81323 12.6796 7.96381C12.7562 8.59427 12.8 9.27272 12.8 10C12.8 10.7273 12.7562 11.4057 12.6796 12.0362C12.6613 12.1868 12.5335 12.3 12.3818 12.3H8.6182C8.46651 12.3 8.33869 12.1868 8.32039 12.0362C8.24378 11.4057 8.2 10.7273 8.2 10C8.2 9.27272 8.24378 8.59427 8.32039 7.96381ZM14.1717 12.2005C14.1148 12.1371 14.0875 12.0526 14.0966 11.9679C14.1629 11.3513 14.2 10.6955 14.2 10C14.2 9.3045 14.1629 8.64868 14.0966 8.03207C14.0875 7.94741 14.1148 7.86287 14.1717 7.79953C14.2286 7.73618 14.3097 7.7 14.3948 7.7H18.248C18.3848 7.7 18.5044 7.79266 18.5385 7.92522C18.7093 8.58869 18.8 9.28397 18.8 10C18.8 10.716 18.7093 11.4113 18.5385 12.0748C18.5044 12.2073 18.3848 12.3 18.248 12.3H14.3948C14.3097 12.3 14.2286 12.2638 14.1717 12.2005ZM8.76481 13.8174C8.82158 13.7434 8.90957 13.7 9.00286 13.7H11.9971C12.0904 13.7 12.1784 13.7434 12.2352 13.8174C12.292 13.8915 12.3111 13.9877 12.2869 14.0778C12.0275 15.0435 11.6996 15.844 11.3753 16.4852C11.1588 16.9134 10.9431 17.2718 10.7495 17.5618C10.6938 17.6452 10.6002 17.6952 10.5 17.6952C10.3998 17.6952 10.3062 17.6452 10.2505 17.5618C10.0568 17.2718 9.84123 16.9134 9.62466 16.4852C9.30038 15.844 8.97248 15.0435 8.71313 14.0778C8.68893 13.9877 8.70803 13.8915 8.76481 13.8174ZM8.58526 17.8932C8.51039 17.9883 8.38567 18.0291 8.26904 17.9967C6.1566 17.4085 4.38436 16.0065 3.31058 14.1502C3.25689 14.0574 3.25681 13.943 3.31039 13.8501C3.36396 13.7572 3.46303 13.7 3.57026 13.7H6.94148C7.08101 13.7 7.20212 13.7962 7.2337 13.9321C7.53291 15.22 7.95176 16.2795 8.37534 17.1171C8.45421 17.273 8.53318 17.4211 8.61149 17.5615C8.67048 17.6672 8.66013 17.798 8.58526 17.8932ZM12.4147 17.8932C12.3399 17.798 12.3295 17.6672 12.3885 17.5615C12.4668 17.4211 12.5458 17.273 12.6247 17.1171C13.0482 16.2795 13.4671 15.22 13.7663 13.9321C13.7979 13.7962 13.919 13.7 14.0585 13.7H17.4297C17.537 13.7 17.636 13.7572 17.6896 13.8501C17.7432 13.943 17.7431 14.0574 17.6894 14.1502C16.6156 16.0065 14.8434 17.4085 12.731 17.9967C12.6143 18.0291 12.4896 17.9883 12.4147 17.8932ZM17.6896 6.14989C17.636 6.24277 17.537 6.3 17.4297 6.3H14.0585C13.919 6.3 13.7979 6.2038 13.7663 6.06789C13.4671 4.77996 13.0482 3.72048 12.6247 2.88295C12.5458 2.727 12.4668 2.57887 12.3885 2.43851C12.3295 2.33278 12.3399 2.20197 12.4147 2.10682C12.4896 2.01168 12.6143 1.97087 12.731 2.00334C14.8434 2.59148 16.6156 3.99352 17.6894 5.84978C17.7431 5.9426 17.7432 6.05701 17.6896 6.14989ZM2.75204 12C2.58751 11.3608 2.5 10.6906 2.5 10C2.5 9.3094 2.58751 8.63924 2.75203 8H6.60516C6.59451 8.09902 6.58461 8.19902 6.57548 8.3C6.52675 8.8387 6.5 9.40528 6.5 10C6.5 10.5947 6.52675 11.1613 6.57548 11.7C6.58461 11.801 6.59451 11.901 6.60516 12H2.75204ZM3.7527 5.7C4.72488 4.17768 6.19812 3.00633 7.93994 2.41839C8.07489 2.37284 8.21144 2.33079 8.3495 2.29235C8.28316 2.41126 8.2164 2.53554 8.14964 2.66522C8.13564 2.69243 8.12163 2.71987 8.10763 2.74755C7.67396 3.60504 7.24649 4.6871 6.94148 6H3.57026C3.62893 5.89857 3.68977 5.79855 3.7527 5.7ZM9.0872 5.7C9.32557 4.88875 9.61081 4.20688 9.89237 3.65018C10.0387 3.36078 10.1844 3.10456 10.3226 2.88105C10.3834 2.78264 10.4427 2.69058 10.5 2.60481C10.5573 2.69058 10.6166 2.78264 10.6774 2.88105C10.8156 3.10456 10.9613 3.36078 11.1076 3.65018C11.3892 4.20688 11.6744 4.88875 11.9128 5.7C11.9416 5.79811 11.9698 5.8981 11.9971 6H9.00286C9.03023 5.8981 9.05837 5.79811 9.0872 5.7ZM8.6182 12C8.54305 11.3816 8.5 10.7152 8.5 10C8.5 9.28479 8.54305 8.61843 8.6182 8H12.3818C12.4569 8.61843 12.5 9.28479 12.5 10C12.5 10.7152 12.4569 11.3816 12.3818 12H8.6182ZM14.3948 12H18.248C18.4125 11.3608 18.5 10.6906 18.5 10C18.5 9.3094 18.4125 8.63924 18.248 8H14.3948C14.4055 8.09902 14.4154 8.19902 14.4245 8.3C14.4732 8.8387 14.5 9.40528 14.5 10C14.5 10.5947 14.4732 11.1613 14.4245 11.7C14.4154 11.801 14.4055 11.901 14.3948 12ZM9.00286 14C9.03023 14.1019 9.05837 14.2019 9.0872 14.3C9.32557 15.1112 9.61081 15.7931 9.89237 16.3498C10.0387 16.6392 10.1844 16.8954 10.3226 17.1189C10.3834 17.2174 10.4427 17.3094 10.5 17.3952C10.5573 17.3094 10.6166 17.2174 10.6774 17.1189C10.8156 16.8954 10.9613 16.6392 11.1076 16.3498C11.3892 15.7931 11.6744 15.1112 11.9128 14.3C11.9416 14.2019 11.9698 14.1019 11.9971 14H9.00286ZM8.14965 17.3348C8.2164 17.4645 8.28317 17.5887 8.34951 17.7077C8.21145 17.6692 8.07489 17.6272 7.93994 17.5816C6.19812 16.9937 4.72488 15.8223 3.7527 14.3C3.68977 14.2015 3.62893 14.1014 3.57026 14H6.94148C7.24649 15.3129 7.67396 16.395 8.10763 17.2524C8.12163 17.2801 8.13564 17.3076 8.14965 17.3348ZM12.6505 17.7076C12.7886 17.6692 12.9251 17.6272 13.0601 17.5816C14.8019 16.9937 16.2751 15.8223 17.2473 14.3C17.3102 14.2015 17.3711 14.1014 17.4297 14H14.0585C13.7535 15.3129 13.326 16.395 12.8924 17.2524C12.8784 17.2801 12.8644 17.3076 12.8504 17.3348C12.7836 17.4645 12.7168 17.5887 12.6505 17.7076ZM17.4297 6C17.3711 5.89857 17.3102 5.79855 17.2473 5.7C16.2751 4.17768 14.8019 3.00633 13.0601 2.41839C12.9251 2.37284 12.7886 2.33079 12.6505 2.29235C12.7168 2.41126 12.7836 2.53553 12.8504 2.66522C12.8644 2.69243 12.8784 2.71987 12.8924 2.74755C13.326 3.60504 13.7535 4.6871 14.0585 6H17.4297ZM10.5 0.3C5.14284 0.3 0.8 4.64284 0.8 10C0.8 15.3572 5.14284 19.7 10.5 19.7C15.8572 19.7 20.2 15.3572 20.2 10C20.2 4.64284 15.8572 0.3 10.5 0.3ZM10.5 0C4.97715 0 0.5 4.47715 0.5 10C0.5 15.5228 4.97715 20 10.5 20C16.0228 20 20.5 15.5228 20.5 10C20.5 4.47715 16.0228 0 10.5 0Z" fill="#E84D28"/>
</svg>
