<svg width="31" height="32" viewBox="0 0 31 32" fill="none" xmlns="http://www.w3.org/2000/svg">
<path d="M16.1458 10.1875L7.59579 18.7375L7.59578 18.7376C7.35177 18.9816 7.22977 19.1036 7.14955 19.2535C7.06933 19.4033 7.03549 19.5725 6.96781 19.9109L5.98138 24.8431C5.905 25.225 5.86681 25.4159 5.97544 25.5246C6.08406 25.6332 6.275 25.595 6.65689 25.5186L11.5891 24.5322C11.9275 24.4645 12.0967 24.4307 12.2465 24.3505C12.3964 24.2702 12.5184 24.1482 12.7625 23.9042L21.3125 15.3542L16.1458 10.1875Z" fill="#FF9272" fill-opacity="0.5"/>
<path d="M7.71264 18.9381L7.71263 18.9381C7.71244 18.9383 7.71225 18.9385 7.71207 18.9387C7.6987 18.9521 7.68536 18.9654 7.67206 18.9786C7.48879 19.1614 7.31261 19.3371 7.18816 19.5569L7.78763 19.8963L7.18816 19.5569C7.0637 19.7767 7.0037 20.0182 6.94128 20.2693C6.93668 20.2878 6.93208 20.3064 6.92743 20.325L6.02208 23.9464C6.01931 23.9574 6.01651 23.9686 6.01369 23.9799C5.96936 24.1568 5.91922 24.3568 5.90256 24.5271C5.88402 24.7167 5.88572 25.0602 6.16275 25.3373C6.43978 25.6143 6.78335 25.616 6.97294 25.5974C7.14318 25.5808 7.34327 25.5306 7.52017 25.4863C7.53143 25.4835 7.54259 25.4807 7.55365 25.4779L11.175 24.5726C11.1936 24.5679 11.2122 24.5633 11.2307 24.5587C11.4819 24.4963 11.7233 24.4363 11.9431 24.3119C12.1629 24.1874 12.3386 24.0112 12.5214 23.8279C12.5348 23.8145 12.5483 23.8009 12.5619 23.7874L22.1134 14.2358L22.1442 14.205C22.5005 13.8488 22.8154 13.5339 23.0351 13.246C23.2732 12.934 23.4633 12.574 23.4633 12.125C23.4633 11.676 23.2732 11.316 23.0351 11.004C22.8154 10.7161 22.5005 10.4012 22.1442 10.045L22.1134 10.0142L21.4859 9.38661L21.455 9.3558C21.0988 8.99949 20.784 8.68461 20.496 8.46493C20.184 8.22682 19.824 8.03669 19.375 8.03669C18.926 8.03669 18.5661 8.22682 18.254 8.46493C17.9661 8.6846 17.6512 8.99949 17.295 9.35579L17.2642 9.38661L7.71264 18.9381Z" stroke="#E84D28" stroke-width="1.37778"/>
<path d="M16.1458 10.1875L21.3125 15.3542" stroke="#E84D28" stroke-width="1.37778"/>
</svg>
