<svg width="22" height="20" viewBox="0 0 22 20" fill="none" xmlns="http://www.w3.org/2000/svg">
<path fill-rule="evenodd" clip-rule="evenodd" d="M11 1.52175C9.12635 1.52175 7.60747 3.12769 7.60747 5.10872C7.60747 7.08975 9.12635 8.6957 11 8.6957C12.8736 8.6957 14.3925 7.08975 14.3925 5.10872C14.3925 3.12769 12.8736 1.52175 11 1.52175ZM6.16822 5.10872C6.16822 2.28725 8.33148 0 11 0C13.6685 0 15.8318 2.28725 15.8318 5.10872C15.8318 7.93019 13.6685 10.2174 11 10.2174C8.33148 10.2174 6.16822 7.93019 6.16822 5.10872ZM5.52124 1.62989C5.63508 2.0325 5.41869 2.45646 5.0379 2.57683C4.21248 2.83775 3.49532 3.81471 3.49532 5.10872C3.49532 6.40274 4.21248 7.3797 5.0379 7.64062C5.41869 7.76099 5.63508 8.18495 5.52124 8.58756C5.4074 8.99017 5.00642 9.21897 4.62564 9.0986C3.08904 8.61286 2.05607 6.95589 2.05607 5.10872C2.05607 3.26155 3.08904 1.60458 4.62564 1.11885C5.00642 0.998476 5.4074 1.22728 5.52124 1.62989ZM16.4787 1.62989C16.5926 1.22728 16.9936 0.998476 17.3743 1.11885C18.9109 1.60458 19.9439 3.26155 19.9439 5.10872C19.9439 6.95589 18.9109 8.61286 17.3743 9.0986C16.9936 9.21897 16.5926 8.99017 16.4787 8.58756C16.3649 8.18495 16.5813 7.76099 16.9621 7.64062C17.7875 7.3797 18.5047 6.40274 18.5047 5.10872C18.5047 3.8147 17.7875 2.83775 16.9621 2.57683C16.5813 2.45646 16.3649 2.0325 16.4787 1.62989ZM6.20352 14.296C5.6335 14.5636 5.21129 14.8794 4.93128 15.2562C4.64652 15.6394 4.52336 16.0665 4.52336 16.5218C4.52336 16.8051 4.57143 17.0084 4.67047 17.1754C4.76955 17.3426 4.96456 17.5488 5.3854 17.7501C6.26307 18.1699 7.92765 18.4784 11 18.4784C14.0723 18.4784 15.7369 18.1699 16.6146 17.7501C17.0354 17.5488 17.2304 17.3426 17.3295 17.1754C17.4285 17.0084 17.4766 16.8051 17.4766 16.5218C17.4766 16.0665 17.3535 15.6394 17.0687 15.2562C16.7887 14.8794 16.3665 14.5636 15.7965 14.296C14.6268 13.7468 12.9434 13.4783 11 13.4783C9.05661 13.4783 7.3732 13.7468 6.20352 14.296ZM5.61942 12.9052C7.05431 12.2315 8.96905 11.9566 11 11.9566C13.0309 11.9566 14.9457 12.2315 16.3806 12.9052C17.8373 13.5891 18.9159 14.7567 18.9159 16.5218C18.9159 16.9896 18.8352 17.5009 18.549 17.9837C18.2627 18.4664 17.8155 18.8459 17.2078 19.1366C16.0293 19.7003 14.0955 20.0001 11 20.0001C7.90446 20.0001 5.97071 19.7003 4.79216 19.1366C4.1845 18.8459 3.73723 18.4664 3.45102 17.9837C3.16478 17.5009 3.08411 16.9896 3.08411 16.5218C3.08411 14.7567 4.16271 13.5891 5.61942 12.9052ZM18.5797 11.2923C18.7563 10.9159 19.1882 10.7621 19.5442 10.9489C20.9998 11.7127 22 13.0052 22 14.8914C22 15.3116 21.6778 15.6523 21.2803 15.6523C20.8829 15.6523 20.5607 15.3116 20.5607 14.8914C20.5607 14.3152 20.424 13.8074 20.1371 13.3693C19.8526 12.9347 19.4347 12.5903 18.9044 12.3121C18.5484 12.1253 18.403 11.6687 18.5797 11.2923ZM3.42032 11.2923C3.59699 11.6687 3.4516 12.1253 3.09559 12.3121C2.5653 12.5903 2.14735 12.9347 1.86283 13.3693C1.57602 13.8074 1.43925 14.3152 1.43925 14.8914C1.43925 15.3116 1.11706 15.6523 0.719625 15.6523C0.322187 15.6523 0 15.3116 0 14.8914C0 13.0052 1.00017 11.7127 2.45581 10.9489C2.81182 10.7621 3.24365 10.9159 3.42032 11.2923Z" fill="#E84D28"/>
</svg>
