<svg width="20" height="20" viewBox="0 0 20 20" fill="none" xmlns="http://www.w3.org/2000/svg">
<path d="M2.7123 12.4381L2.7123 12.4381C2.71211 12.4383 2.71192 12.4385 2.71173 12.4387C2.69837 12.4521 2.68503 12.4654 2.67172 12.4786C2.48845 12.6614 2.31228 12.8371 2.18782 13.0569L2.78729 13.3963L2.18782 13.0569C2.06337 13.2767 2.00336 13.5182 1.94094 13.7693C1.93635 13.7878 1.93174 13.8064 1.92709 13.825L1.02174 17.4464C1.01898 17.4574 1.01618 17.4686 1.01335 17.4799C0.969022 17.6568 0.918881 17.8568 0.902229 18.0271C0.883683 18.2167 0.885389 18.5602 1.16242 18.8373C1.43945 19.1143 1.78302 19.116 1.9726 19.0974C2.14284 19.0808 2.34293 19.0306 2.51983 18.9863C2.53109 18.9835 2.54225 18.9807 2.55331 18.9779L6.17471 18.0726C6.1933 18.0679 6.21185 18.0633 6.23034 18.0587C6.48152 17.9963 6.72298 17.9363 6.94279 17.8119C7.1626 17.6874 7.33828 17.5112 7.52104 17.3279C7.53449 17.3145 7.54799 17.3009 7.56154 17.2874L17.1131 7.73585L17.1439 7.70502C17.5002 7.34878 17.8151 7.03395 18.0347 6.74604C18.2729 6.43395 18.463 6.07397 18.463 5.625C18.463 5.17603 18.2729 4.81605 18.0347 4.50396C17.8151 4.21605 17.5002 3.90122 17.1439 3.54497L17.1131 3.51415L16.4855 2.88661L16.4547 2.8558C16.0985 2.49949 15.7836 2.18461 15.4957 1.96493C15.1836 1.72682 14.8236 1.53669 14.3747 1.53669C13.9257 1.53669 13.5657 1.72682 13.2536 1.96493C12.9657 2.1846 12.6509 2.49949 12.2946 2.85579L12.2638 2.88661L2.7123 12.4381Z" stroke="#E84D28" stroke-width="1.37778"/>
</svg>
