<svg width="20" height="20" viewBox="0 0 20 20" fill="none" xmlns="http://www.w3.org/2000/svg">
<path d="M3.21255 12.4381L3.21254 12.4381C3.21235 12.4383 3.21216 12.4385 3.21197 12.4387C3.19861 12.4521 3.18527 12.4654 3.17197 12.4786C2.9887 12.6614 2.81252 12.8371 2.68807 13.0569L3.28754 13.3963L2.68806 13.0569C2.56361 13.2767 2.50361 13.5182 2.44119 13.7693C2.43659 13.7878 2.43198 13.8064 2.42734 13.825L1.52199 17.4464C1.51922 17.4574 1.51642 17.4686 1.5136 17.4799C1.46927 17.6568 1.41913 17.8568 1.40247 18.0271C1.38393 18.2167 1.38563 18.5602 1.66266 18.8373C1.93969 19.1143 2.28326 19.116 2.47285 19.0974C2.64309 19.0808 2.84317 19.0306 3.02008 18.9863C3.03133 18.9835 3.0425 18.9807 3.05356 18.9779L6.67495 18.0726C6.69355 18.0679 6.71209 18.0633 6.73059 18.0587C6.98177 17.9963 7.22322 17.9363 7.44303 17.8119C7.66285 17.6874 7.83853 17.5112 8.02128 17.3279C8.03474 17.3145 8.04823 17.3009 8.06178 17.2874L17.6133 7.73585L17.6441 7.70502C18.0004 7.34878 18.3153 7.03395 18.535 6.74604C18.7731 6.43395 18.9632 6.07397 18.9632 5.625C18.9632 5.17603 18.7731 4.81605 18.535 4.50396C18.3153 4.21605 18.0004 3.90122 17.6441 3.54497L17.6133 3.51415L16.9858 2.88661L16.955 2.8558C16.5987 2.49949 16.2839 2.18461 15.996 1.96493C15.6839 1.72682 15.3239 1.53669 14.8749 1.53669C14.4259 1.53669 14.066 1.72682 13.7539 1.96493C13.466 2.1846 13.1511 2.49949 12.7949 2.85579L12.7641 2.88661L3.21255 12.4381Z" stroke="#E84D28" stroke-width="1.37778"/>
</svg>
