<svg width="156" height="56" viewBox="0 0 156 56" fill="none" xmlns="http://www.w3.org/2000/svg">
<path d="M67.521 13.1255C67.521 13.3658 67.4163 13.6153 67.3116 13.8402C67.0035 14.4903 66.3596 14.7183 65.7558 14.3239C65.2752 14.0097 64.7792 13.945 64.2339 13.9296C61.72 13.8618 59.2061 13.7817 56.6922 13.6893C54.1783 13.5969 51.6675 13.489 49.1536 13.3781C48.1585 13.335 47.1603 13.2611 46.1652 13.2025C45.5953 13.1717 45.4967 13.2672 45.4967 13.8187C45.5029 14.9216 45.4998 16.0245 45.4967 17.1305C45.4905 19.7522 45.4813 22.3739 45.4752 24.9956C45.4752 25.7104 45.4782 25.7011 46.1899 25.7104C48.8455 25.7381 51.5042 25.7782 54.1629 25.7905C54.4864 25.7936 54.8314 25.695 55.1271 25.5594C56.0545 25.1404 56.8616 25.5071 56.9818 26.5206C57.1081 27.5989 57.1081 28.6864 56.8 29.7523C56.7445 29.9464 56.7599 30.1775 56.8 30.3777C56.8832 30.8152 56.7446 31.1572 56.3934 31.4036C56.0329 31.6563 55.6447 31.6563 55.2997 31.379C54.8499 31.0185 54.3077 31.1048 53.8086 31.0832C52.1696 31.0062 50.5307 30.9816 48.8886 30.9508C47.9305 30.9354 46.9693 30.9446 46.0081 30.9446C45.5121 30.9446 45.469 30.9816 45.469 31.5022C45.4628 33.8374 45.4659 36.1726 45.4659 38.5109H45.3673C45.3673 39.6508 45.3673 40.7938 45.3704 41.9337C45.3704 42.4512 45.4012 42.482 45.9188 42.4789C51.8585 42.4481 57.8013 42.4173 63.744 42.3711C64.0398 42.3711 64.3448 42.2941 64.6251 42.1986C65.3707 41.946 65.9714 42.2417 66.1039 43.0212C66.2025 43.5973 66.2333 44.1919 66.2364 44.7772C66.2425 45.5412 66.1963 46.3083 66.1563 47.0724C66.1224 47.7132 65.9036 48.0366 65.3368 48.1783C65.0965 48.2369 64.7761 48.2276 64.5697 48.1137C63.8087 47.6978 62.9985 47.7255 62.1759 47.7193C59.7514 47.6978 57.3237 47.6546 54.8992 47.6146C53.5621 47.593 52.222 47.5714 50.885 47.5252C49.3723 47.4729 47.8596 47.402 46.347 47.3311C45.891 47.3065 45.5059 47.3527 45.1116 47.6762C44.8251 47.9134 44.3661 48.0089 43.9748 48.0397C43.2293 48.0983 42.4776 48.0705 41.7259 48.0613C41.5194 48.0613 41.2976 48.012 41.1036 47.935C40.6661 47.7624 40.4936 47.3404 40.5952 46.8875C40.6784 46.5086 40.7585 46.1204 40.7616 45.7384C40.7739 35.3932 40.7708 25.048 40.7831 14.7028C40.7831 13.0978 40.8386 11.4927 40.854 9.89071C40.8571 9.61036 40.7986 9.32692 40.7277 9.05582C40.6106 8.60911 40.7554 8.28256 41.1898 8.12544C41.273 8.09463 41.3623 8.06382 41.4486 8.06074C42.5546 8.01761 43.6821 7.8266 44.7604 7.97755C47.2435 8.3226 49.7358 8.26714 52.222 8.36265C55.3428 8.4828 58.4605 8.58446 61.5813 8.69229C62.5795 8.72618 63.5777 8.77239 64.5758 8.77239C64.9209 8.77239 65.2998 8.71694 65.6017 8.56599C66.4859 8.12544 67.4717 8.70153 67.4902 9.59803C67.5149 10.7749 67.5303 11.9517 67.521 13.1255Z" fill="#D24E2B"/>
<path d="M24.2054 48.1732C23.6662 48.1732 23.124 48.1732 22.5818 48.1701H21.7777C21.3464 48.167 20.872 48.1423 20.4499 48.1023C20.0679 48.0653 19.7722 47.9236 19.5719 47.6771C19.2515 47.2859 19.3008 46.7806 19.3224 46.5681L19.3285 46.5157C19.3409 43.9125 19.347 41.2969 19.3501 38.6813C19.3562 36.0627 19.3593 33.4471 19.3716 30.8285C19.3716 30.3417 19.4117 29.8519 19.4518 29.3775C19.4795 29.0417 19.5072 28.6935 19.5195 28.3577C19.4918 28.1636 19.4425 27.797 19.6982 27.4705C19.8923 27.224 20.2065 27.0792 20.6317 27.0422C20.8042 27.0268 21.0045 27.0084 21.2016 27.0084C21.8886 27.0022 22.5818 26.9899 23.275 26.9745C24.23 26.956 25.222 26.9375 26.1832 26.9375C26.8702 26.9375 27.4833 26.9467 28.0563 26.9652H28.158C29.1161 26.9652 30.7273 27.0884 30.7704 27.9233V27.9634C30.7704 28.0127 30.5856 32.8741 30.3022 37.6924C29.7138 47.7881 29.3348 47.8651 28.8542 47.9606C28.198 48.0931 27.1721 48.1393 26.4266 48.1547C25.7704 48.167 25.0649 48.1732 24.1992 48.1732H24.2054Z" fill="#6EBFAE"/>
<path d="M26.1897 27.3928C26.812 27.3928 27.4312 27.402 28.0443 27.4205C28.0843 27.4205 28.1213 27.4205 28.1583 27.4205C29.329 27.4205 30.2963 27.6516 30.3117 27.9412C30.3117 27.9412 29.5816 47.3407 28.7683 47.504C28.1767 47.6241 27.231 47.6734 26.4238 47.6888C25.6875 47.7042 24.9512 47.7073 24.2087 47.7073C23.4016 47.7073 22.5913 47.7011 21.7811 47.7011C21.356 47.7011 20.8969 47.6765 20.4964 47.6365C19.5938 47.5502 19.7848 46.7184 19.7909 46.5243C19.8156 41.2901 19.8094 36.0559 19.8341 30.8217C19.8341 29.993 19.9542 29.1642 19.9819 28.3386C19.985 28.2184 19.7447 27.5776 20.672 27.4945C20.8446 27.4791 21.0294 27.4636 21.205 27.4606C22.8594 27.4452 24.5384 27.3897 26.1835 27.3897M26.1835 26.4655C25.2131 26.4655 24.2211 26.484 23.2599 26.5025C22.5698 26.5148 21.8797 26.5302 21.1927 26.5363C20.9801 26.5363 20.7768 26.5548 20.5827 26.5733C20.0281 26.6226 19.6061 26.8259 19.3288 27.1771C18.9622 27.6423 19.0207 28.1661 19.0485 28.3725C19.0361 28.6836 19.0084 28.9979 18.9838 29.3306C18.9437 29.8143 18.9037 30.3103 18.9037 30.8217C18.8914 33.4372 18.8852 36.099 18.8821 38.6745C18.876 41.2346 18.8729 43.8841 18.8605 46.4873V46.512C18.8328 46.7615 18.7681 47.4239 19.2118 47.9599C19.4058 48.1972 19.7694 48.4898 20.404 48.5514C20.8384 48.5946 21.3251 48.6192 21.7749 48.6192H22.5944C23.1305 48.6254 23.6696 48.6254 24.2057 48.6254C25.0713 48.6254 25.7799 48.6192 26.4361 48.6069C27.5483 48.5853 28.3924 48.5176 28.9469 48.4036C29.7079 48.2495 29.8619 47.3961 29.9728 46.7738C30.0683 46.2316 30.17 45.4553 30.2686 44.4633C30.4319 42.8212 30.5982 40.5476 30.7646 37.7072C31.0449 32.8827 31.2298 28.0151 31.2329 27.9689V27.9288V27.8888C31.1836 26.9615 30.1484 26.4901 28.1552 26.4901C28.1213 26.4901 28.0843 26.4901 28.0504 26.4901C27.4805 26.4717 26.8705 26.4624 26.1866 26.4624L26.1835 26.4655Z" fill="#6FBFAE"/>
<path d="M97.2806 44.7486C97.2713 45.5865 97.2344 46.4245 97.1882 47.2594C97.1697 47.6013 96.8955 47.817 96.4796 47.8509C96.344 47.8632 96.2085 47.8724 96.0729 47.8724C95.9404 47.8755 95.808 47.8724 95.6786 47.8632C95.4075 47.8416 95.1333 47.8262 94.8622 47.817C94.3261 47.7985 93.787 47.8016 93.2509 47.817C92.1912 47.8509 91.1345 47.9402 90.0808 48.0234C87.8504 48.199 85.6261 48.1343 83.4018 48.1713C80.1731 48.2267 76.9445 48.2606 73.7159 48.3007C72.6684 48.313 72.2371 47.857 72.234 46.8157C72.2279 45.1121 72.1816 43.4053 72.1847 41.6986C72.1847 39.2186 72.2217 36.7417 72.2248 34.2647C72.2371 28.0755 72.2371 21.8893 72.2556 15.7001C72.2587 14.4185 72.3141 13.1369 72.3418 11.8584C72.348 11.6951 72.3511 11.5349 72.3542 11.3747C72.3634 10.8171 72.3511 10.2564 72.3449 9.69877C72.3449 9.54781 72.3388 9.39685 72.3388 9.24589V9.12884C72.3388 8.95015 72.3511 8.77146 72.3788 8.59585C72.4712 7.97354 72.6314 7.81643 73.2507 7.83492C73.9993 7.85648 74.7479 7.89961 75.4935 7.96739C76.0726 8.01976 76.2606 8.2693 76.2575 8.85156C76.2575 8.98095 76.2544 9.11342 76.2575 9.24589C76.2544 9.39685 76.2544 9.54781 76.2544 9.69877C76.2513 10.4197 76.2544 11.1375 76.2544 11.8584V12.1665H76.2144C76.2144 13.0044 76.199 13.8424 76.2205 14.6804C76.239 15.5707 76.3314 16.461 76.3253 17.3483C76.2975 20.9836 76.2513 24.6189 76.199 28.2542C76.1835 29.3756 76.2051 30.5062 76.0757 31.6184C75.9155 33.0109 76.1712 34.391 76.0942 35.7743C76.0603 36.4336 76.011 37.0929 76.011 37.7491C76.011 38.3529 76.0757 38.9567 76.0942 39.5606C76.1342 40.8606 76.1774 42.1607 76.1897 43.4639C76.1989 44.4281 76.1805 44.4436 77.1786 44.422C79.8342 44.3573 82.4899 44.268 85.1455 44.2094C87.5515 44.1601 89.9607 44.1386 92.3668 44.1078C92.6625 44.1047 92.9552 44.1078 93.2509 44.1108C93.5405 44.1139 93.8332 44.1139 94.1228 44.1047C94.3723 44.0985 94.6157 44.0338 94.8622 44.0092C94.9146 44.003 94.97 43.9999 95.0224 43.9969C95.3705 43.9876 95.7217 43.9722 96.0729 43.9814C96.2701 43.9845 96.4672 43.9969 96.6644 44.0184C97.1235 44.0708 97.2867 44.2895 97.2806 44.7455V44.7486Z" fill="#EDB748"/>
<path d="M113.662 45.3609C112.361 45.3609 110.981 45.1329 109.564 44.68C108.178 44.2395 107.078 43.6696 106.2 42.9363C105.997 42.7669 105.787 42.6036 105.578 42.4372C105.165 42.1138 104.737 41.7749 104.348 41.3929C103.588 40.6443 102.913 39.7909 102.337 38.8574C101.456 37.4249 100.806 35.906 100.405 34.3441C99.9645 32.625 99.7889 31.0908 99.866 29.6521C99.7889 27.8437 100.029 26.0199 100.599 24.0821C100.99 22.7512 101.511 21.4542 102.146 20.2219C102.679 19.1929 103.347 18.167 104.321 16.8947C104.666 16.4418 105.072 16.0444 105.464 15.6593C105.63 15.496 105.796 15.3327 105.957 15.1664C105.997 15.1233 106.046 15.0863 106.092 15.0493C106.104 15.0401 106.117 15.0308 106.129 15.0185C107.047 14.0758 108.193 13.2409 109.632 12.4646C111.739 11.3308 113.871 10.7609 116.145 10.7178C116.256 10.7178 116.363 10.7178 116.474 10.7178C118.369 10.7178 120.002 11.0258 121.468 11.6574C122.858 12.2581 124.019 12.9698 125.017 13.8293C125.091 13.894 125.168 13.9556 125.245 14.0203C125.427 14.1713 125.615 14.3253 125.791 14.5071C126.308 15.0462 126.314 15.8103 125.806 16.3186C125.566 16.5558 125.251 16.6883 124.922 16.6883C124.592 16.6883 124.296 16.5743 124.019 16.3586C123.859 16.2323 123.699 16.106 123.538 15.9797C122.519 15.1695 121.554 14.4054 120.371 13.9526C119.441 13.5952 118.455 13.3795 117.355 13.2902C117.066 13.2656 116.773 13.2532 116.484 13.2532C115.529 13.2532 114.558 13.3826 113.594 13.6383C112.069 14.0419 110.584 14.769 109.182 15.7949C107.901 16.7345 106.77 17.8898 105.729 19.3285C105.054 20.2589 104.487 21.217 104.047 22.1813C103.393 23.6077 102.919 25.1049 102.642 26.633C102.448 27.7051 102.371 28.8542 102.401 30.2436C102.435 31.7994 102.688 33.2011 103.169 34.5289L103.27 34.8124C103.455 35.3269 103.628 35.8105 103.859 36.2696C104.385 37.3201 104.943 38.1889 105.559 38.9221C106.24 39.7323 107.038 40.4471 107.925 41.0417C109.179 41.8827 110.522 42.4095 111.918 42.6067C112.528 42.693 113.132 42.7361 113.717 42.7361C114.598 42.7361 115.464 42.6375 116.289 42.4403C117.654 42.1138 118.905 41.5839 120.005 40.8661C120.14 40.7798 120.273 40.6874 120.405 40.598C120.68 40.4132 120.966 40.2191 121.262 40.0466C121.524 39.8926 121.819 39.7847 122.1 39.7477C122.174 39.7385 122.245 39.7323 122.312 39.7323C122.796 39.7323 123.181 39.9757 123.369 40.4039C123.612 40.9492 123.502 41.4884 123.073 41.8457C122.75 42.1168 122.405 42.3664 122.075 42.6067L121.835 42.7823C120.683 43.6264 119.367 44.1594 118.23 44.5691C117.358 44.8834 116.453 45.0466 115.442 45.213C114.86 45.3085 114.259 45.3578 113.655 45.3578L113.662 45.3609Z" fill="#6EBFAE"/>
<path d="M116.471 11.1842C118.138 11.1842 119.752 11.4245 121.283 12.0869C122.515 12.6198 123.686 13.2976 124.712 14.1848C124.961 14.4005 125.226 14.5977 125.454 14.8318C125.809 15.1984 125.803 15.6698 125.476 15.9963C125.316 16.1535 125.122 16.2305 124.918 16.2305C124.715 16.2305 124.496 16.1504 124.299 15.9994C123.113 15.0721 121.973 14.077 120.534 13.5256C119.518 13.1374 118.464 12.9217 117.392 12.8324C117.09 12.8077 116.785 12.7954 116.483 12.7954C115.47 12.7954 114.465 12.9341 113.476 13.1959C111.81 13.6365 110.297 14.4097 108.911 15.4264C107.527 16.443 106.366 17.6692 105.356 19.0617C104.684 19.989 104.102 20.9625 103.627 21.9915C102.959 23.4456 102.475 24.9706 102.185 26.5541C101.961 27.7833 101.908 29.0187 101.936 30.2602C101.97 31.779 102.213 33.264 102.731 34.6934C102.949 35.2973 103.156 35.9103 103.442 36.4834C103.929 37.4569 104.493 38.3842 105.202 39.2283C105.922 40.0848 106.748 40.818 107.663 41.4341C108.929 42.2844 110.325 42.8574 111.847 43.0731C112.469 43.1624 113.091 43.2086 113.711 43.2086C114.61 43.2086 115.504 43.1101 116.391 42.8975C117.765 42.5679 119.065 42.0349 120.254 41.2585C120.667 40.9874 121.067 40.7009 121.493 40.4514C121.693 40.3343 121.927 40.245 122.158 40.2111C122.21 40.2049 122.26 40.2018 122.306 40.2018C122.614 40.2018 122.833 40.3497 122.94 40.5993C123.091 40.9381 123.054 41.2616 122.768 41.4988C122.38 41.8223 121.964 42.1181 121.554 42.4169C120.494 43.1963 119.287 43.7016 118.067 44.1421C117.201 44.4533 116.274 44.6135 115.362 44.7644C114.789 44.86 114.219 44.9031 113.652 44.9031C112.309 44.9031 110.987 44.6566 109.693 44.2469C108.547 43.8834 107.432 43.3812 106.486 42.5894C105.879 42.0842 105.223 41.6282 104.662 41.0737C103.92 40.3405 103.273 39.521 102.718 38.6245C101.871 37.2505 101.237 35.7902 100.839 34.2375C100.454 32.731 100.229 31.1875 100.315 29.6626C100.232 27.7802 100.513 25.9749 101.03 24.222C101.412 22.9219 101.917 21.6588 102.546 20.4449C103.147 19.2804 103.889 18.2176 104.678 17.1886C105.146 16.5755 105.741 16.061 106.28 15.5003C106.332 15.4479 106.4 15.4079 106.449 15.3555C107.438 14.3389 108.597 13.5564 109.841 12.8878C111.81 11.8281 113.889 11.2366 116.141 11.1965C116.249 11.1965 116.354 11.1965 116.459 11.1965M116.459 10.2723C116.348 10.2723 116.234 10.2723 116.123 10.2723C113.772 10.3154 111.576 10.9038 109.401 12.0745C107.931 12.8663 106.754 13.7227 105.805 14.6932L105.796 14.6993C105.75 14.7332 105.682 14.7856 105.611 14.8626C105.454 15.0259 105.291 15.1861 105.128 15.3463C104.724 15.7437 104.308 16.1504 103.941 16.631C102.953 17.9249 102.269 18.9723 101.723 20.026C101.073 21.2829 100.543 22.6107 100.143 23.9663C99.5606 25.9441 99.3142 27.811 99.3912 29.6626C99.3142 31.1413 99.4959 32.7156 99.9457 34.4716C100.359 36.0798 101.027 37.6417 101.933 39.1143C102.527 40.0786 103.227 40.9628 104.012 41.7361C104.419 42.1366 104.856 42.4816 105.282 42.8143C105.494 42.9807 105.694 43.1409 105.892 43.3041C106.816 44.0743 107.968 44.672 109.413 45.1311C110.876 45.5963 112.303 45.8304 113.652 45.8304C114.28 45.8304 114.906 45.778 115.513 45.6794C116.545 45.51 117.472 45.3405 118.381 45.014C119.549 44.595 120.901 44.0466 122.103 43.1655L122.337 42.993C122.676 42.7466 123.024 42.4939 123.363 42.2105C123.951 41.7206 124.111 40.9597 123.785 40.2265C123.523 39.635 122.968 39.2807 122.306 39.2807C122.217 39.2807 122.124 39.2868 122.032 39.2992C121.69 39.3454 121.342 39.4717 121.024 39.6596C120.716 39.8414 120.427 40.0386 120.143 40.2265C120.011 40.3158 119.881 40.4021 119.749 40.4884C118.692 41.1784 117.491 41.6868 116.178 42.001C115.386 42.1889 114.558 42.2844 113.714 42.2844C113.15 42.2844 112.568 42.2413 111.979 42.1581C110.651 41.9702 109.373 41.468 108.181 40.667C107.327 40.094 106.563 39.4101 105.91 38.6337C105.315 37.9282 104.779 37.0903 104.268 36.0705C104.052 35.6392 103.883 35.1679 103.704 34.6719L103.6 34.3823C103.134 33.1038 102.891 31.7482 102.86 30.2418C102.829 28.8831 102.903 27.7648 103.094 26.7235C103.365 25.2324 103.827 23.7722 104.465 22.3827C104.893 21.4493 105.445 20.5158 106.101 19.6101C107.115 18.2114 108.211 17.09 109.453 16.1781C110.827 15.1707 112.219 14.4898 113.707 14.0955C114.632 13.8521 115.562 13.7258 116.477 13.7258C116.754 13.7258 117.035 13.7381 117.309 13.7597C118.362 13.846 119.308 14.0524 120.196 14.3943C121.311 14.8195 122.247 15.565 123.239 16.3506C123.4 16.4769 123.56 16.6063 123.723 16.7326C124.08 17.013 124.493 17.1608 124.909 17.1608C125.362 17.1608 125.793 16.9822 126.12 16.6556C126.804 15.9717 126.801 14.9181 126.111 14.1972C125.917 13.9938 125.707 13.8244 125.525 13.6734C125.451 13.6118 125.377 13.5533 125.307 13.4917C124.271 12.5983 123.073 11.865 121.64 11.2458C120.119 10.5865 118.424 10.2661 116.462 10.2661L116.459 10.2723Z" fill="#6FBFAE"/>
<path d="M31.9968 15.8722C31.9691 17.3972 31.661 18.7805 31.1126 20.096C30.7768 20.9031 30.3147 21.6548 29.7232 22.3233C29.2827 22.8194 28.8052 23.263 28.2722 23.6573C28.0196 23.8452 27.8193 24.1164 27.5513 24.2735C27.2925 24.4244 26.9844 24.5168 26.6887 24.5723C26.359 24.6339 26.0109 24.6093 25.6751 24.6462C24.8772 24.7356 24.107 24.5415 23.3276 24.4306C23.3183 24.4306 23.3091 24.4275 23.2998 24.4244C22.4988 24.0979 21.6763 23.8452 20.977 23.2845C20.3824 22.8101 19.9695 22.2217 19.5444 21.6179C18.8974 20.6998 18.5277 19.6677 18.2597 18.6018C18.0102 17.6005 17.9455 16.5716 18.0441 15.5395C18.0749 15.213 18.0903 14.8802 18.1488 14.5568C18.3367 13.5185 18.6633 12.5235 19.1439 11.5838C19.5413 10.8075 20.0435 10.0958 20.6689 9.48275C21.7133 8.45686 22.9363 7.7452 24.4151 7.56651C25.746 7.40631 26.9967 7.65279 28.152 8.35212C28.6604 8.6602 29.1286 9.01756 29.5353 9.4427C30.6505 10.6041 31.3529 11.9843 31.6857 13.5555C31.7781 13.9837 31.8643 14.415 31.9229 14.8494C31.9722 15.213 31.9783 15.5857 31.9968 15.8661V15.8722ZM18.9098 16.3744C18.842 17.6375 19.1192 18.8236 19.5844 19.9758C19.8679 20.6782 20.2468 21.3252 20.7521 21.8797C21.4853 22.6776 22.4372 23.1644 23.46 23.4663C24.4336 23.7559 25.4441 23.8298 26.4515 23.6019C26.661 23.5557 26.8612 23.4601 27.0491 23.3554C27.2217 23.2599 27.3726 23.1244 27.5297 23.0011C27.9148 22.6992 28.3276 22.4312 28.6727 22.0892C29.5723 21.1958 30.2007 20.1299 30.5858 18.9191C31.0017 17.6067 31.1712 16.2697 31.0141 14.9018C30.8169 13.2012 30.2531 11.6454 29.0978 10.3423C28.0843 9.19624 26.8273 8.51539 25.2869 8.45994C24.3781 8.42605 23.5217 8.66636 22.7053 9.10383C21.399 9.80624 20.4963 10.8814 19.8525 12.1661C19.1932 13.4816 18.8235 14.8895 18.9067 16.3744H18.9098Z" fill="#EDB748"/>
<path d="M103.027 3.62562C103.335 3.60097 103.615 3.75502 103.8 4.01688C104.121 4.46975 104.45 4.92262 104.694 5.41554C105.31 6.66633 105.874 7.93869 106.468 9.19872C106.622 9.52528 106.715 9.85183 106.551 10.1907C106.413 10.4803 106.203 10.7052 105.846 10.7329C105.415 10.7668 105.057 10.622 104.829 10.2585C104.549 9.81795 104.284 9.362 104.041 8.89681C103.446 7.76617 102.858 6.62937 102.294 5.48333C102.161 5.21222 102.081 4.8949 102.057 4.59298C102.007 4.03228 102.429 3.62562 103.027 3.62562Z" fill="#EDB748"/>
<path d="M124.774 2.95853C124.663 3.23271 124.561 3.60548 124.37 3.91972C123.803 4.84395 123.193 5.74045 122.617 6.65852C122.417 6.97584 122.257 7.32087 122.106 7.66591C121.755 8.46075 120.846 8.61788 120.251 7.97092C119.986 7.68441 119.971 7.33628 120.134 7.00356C120.418 6.43054 120.717 5.86368 121.034 5.30606C121.456 4.56668 121.881 3.8273 122.34 3.10948C122.583 2.72747 122.87 2.35778 123.203 2.05278C123.505 1.77551 123.911 1.80324 124.269 1.99733C124.604 2.17601 124.718 2.49949 124.777 2.95544L124.774 2.95853Z" fill="#EDB748"/>
<path d="M128.29 48.7848C127.883 48.7787 127.575 48.5723 127.353 48.2426C126.949 47.645 126.564 47.035 126.164 46.4342C125.652 45.6702 125.126 44.9216 124.623 44.1545C124.306 43.6708 124.315 43.2457 124.608 42.876C125.042 42.3245 125.822 42.3676 126.284 43.0084C126.952 43.9388 127.587 44.8969 128.24 45.8396C128.502 46.2155 128.761 46.5944 129.035 46.961C129.325 47.3492 129.417 47.762 129.195 48.2026C129.017 48.563 128.724 48.7848 128.29 48.7848Z" fill="#EDB748"/>
<path d="M120.164 45.9269C120.377 46.0563 120.651 46.1426 120.79 46.3274C121.153 46.8111 121.48 47.3225 121.782 47.8462C122.315 48.7705 122.814 49.7101 123.331 50.6405C123.513 50.964 123.627 51.2967 123.575 51.6725C123.526 52.0453 123.331 52.3226 122.98 52.452C122.641 52.5783 122.293 52.5844 122.013 52.3103C121.816 52.1162 121.615 51.9097 121.483 51.6725C120.95 50.7144 120.442 49.7378 119.921 48.7735C119.727 48.4131 119.505 48.065 119.317 47.7014C119.12 47.3225 119.037 46.922 119.234 46.5184C119.407 46.1641 119.715 45.9916 120.161 45.9238L120.164 45.9269Z" fill="#EDB748"/>
<path d="M128.505 12.3433C127.729 12.3433 127.263 11.6624 127.584 11.0093C127.744 10.6858 128.012 10.3685 128.308 10.1652C129.349 9.44737 130.421 8.78192 131.484 8.09491C131.54 8.05794 131.595 8.02405 131.654 7.99633C132.171 7.74987 132.797 7.89158 133.065 8.3198C133.345 8.76651 133.222 9.35495 132.716 9.70308C131.946 10.236 131.145 10.7228 130.366 11.2404C130.039 11.456 129.725 11.6932 129.411 11.9305C129.118 12.1492 128.835 12.3772 128.505 12.3402V12.3433Z" fill="#EDB748"/>
<path d="M112.213 49.0031C112.204 48.4024 112.377 48.0204 112.832 47.8017C113.202 47.626 113.56 47.7062 113.843 47.9588C114.012 48.1097 114.16 48.35 114.203 48.5718C114.327 49.2311 114.407 49.8996 114.481 50.5682C114.564 51.3168 114.619 52.0685 114.687 52.8202C114.718 53.156 114.687 53.4733 114.487 53.7598C114.08 54.3359 113.282 54.3328 112.928 53.7229C112.783 53.4733 112.678 53.1776 112.645 52.8911C112.515 51.8652 112.426 50.8362 112.318 49.8103C112.284 49.5022 112.244 49.1911 112.222 48.997L112.213 49.0031Z" fill="#EDB748"/>
<path d="M133.147 27.8491C133.982 27.9693 135.005 28.1202 136.031 28.262C136.324 28.302 136.619 28.3205 136.912 28.3297C137.513 28.342 137.922 28.6409 137.99 29.1307C138.061 29.6298 137.735 30.1474 137.205 30.2952C136.943 30.3692 136.65 30.3969 136.379 30.3692C135.153 30.2336 133.933 30.0642 132.71 29.9194C131.816 29.8116 131.327 29.103 131.718 28.4283C131.983 27.9693 132.448 27.8491 133.144 27.8553L133.147 27.8491Z" fill="#EDB748"/>
<path d="M104.345 50.5139C104.444 50.0178 104.588 49.2939 104.73 48.5699C104.832 48.0554 104.93 47.5378 105.035 47.0264C105.081 46.8015 105.128 46.5736 105.211 46.3641C105.399 45.8866 105.691 45.6925 106.141 45.7079C106.535 45.7202 106.902 46.0067 107.031 46.4411C107.087 46.6259 107.127 46.8354 107.093 47.0203C106.856 48.3789 106.616 49.7375 106.341 51.0899C106.255 51.5213 106.015 51.8848 105.503 51.9433C104.718 52.0327 104.323 51.6322 104.342 50.5169L104.345 50.5139Z" fill="#EDB748"/>
<path d="M113.451 6.53614C113.313 6.87194 113.242 7.22623 113.038 7.48193C112.826 7.74996 112.481 7.89475 112.105 7.76844C111.726 7.63905 111.43 7.41416 111.366 6.98902C111.159 5.59344 110.943 4.20093 110.759 2.80226C110.682 2.22616 111.033 1.78561 111.569 1.68086C112.053 1.58844 112.598 1.89651 112.699 2.40792C112.974 3.77269 113.199 5.14671 113.448 6.53305L113.451 6.53614Z" fill="#EDB748"/>
<path d="M135.026 39.5122C135.011 40.156 134.336 40.6767 133.751 40.5257C133.593 40.4857 133.439 40.4148 133.301 40.3317C132.275 39.7155 131.252 39.087 130.226 38.4709C129.638 38.1197 129.397 37.6267 129.604 37.1338C129.81 36.6471 130.325 36.3821 130.873 36.5978C131.511 36.8504 132.118 37.1893 132.718 37.522C133.264 37.8239 133.781 38.1751 134.317 38.4955C134.724 38.7389 134.992 39.0624 135.026 39.5122Z" fill="#EDB748"/>
<path d="M136.472 16.7588C137.03 16.7557 137.442 17.0546 137.566 17.489C137.692 17.9295 137.51 18.3885 137.107 18.6319C137.023 18.6843 136.934 18.7274 136.845 18.7675C135.711 19.2419 134.58 19.7194 133.444 20.1846C132.994 20.3695 132.476 20.237 132.184 19.895C131.956 19.627 131.9 19.1187 132.103 18.7829C132.199 18.6227 132.347 18.4563 132.513 18.3824C133.484 17.9449 134.463 17.529 135.446 17.1193C135.806 16.9683 136.185 16.8605 136.475 16.7619L136.472 16.7588Z" fill="#EDB748"/>
<path d="M25.1484 18.7675C25.1484 18.5272 25.1484 18.2869 25.1484 18.0466C25.1484 17.8679 25.0468 17.7971 24.8804 17.8033C24.7171 17.8094 24.5384 17.757 24.4799 18.0035C24.3474 18.5673 24.1996 19.128 24.0548 19.6887C24.0301 19.7842 23.9993 19.8828 23.9469 19.9659C23.8268 20.1631 23.6543 20.2309 23.4941 20.1631C23.3061 20.0799 23.1952 19.8797 23.2414 19.6702C23.2877 19.4669 23.3616 19.2697 23.4078 19.0633C23.491 18.7028 23.5803 18.3455 23.6358 17.9789C23.6851 17.6492 23.6419 17.6122 23.3185 17.5321C22.8902 17.4243 22.462 17.3196 22.1385 16.9838C21.3776 16.1982 21.242 15.274 21.5563 14.2665C21.6888 13.8352 22.2156 13.4964 22.6684 13.4748C22.9642 13.4625 23.2445 13.4994 23.5156 13.6227C23.7806 13.7428 23.9808 13.9215 24.1195 14.1803C24.4429 14.7841 24.5693 15.4342 24.597 16.1119C24.6031 16.3029 24.6001 16.4908 24.597 16.6819C24.597 16.8421 24.634 16.9499 24.828 16.9591C25.0714 16.9684 25.1608 16.9252 25.1947 16.7127C25.2439 16.4077 25.2871 16.0996 25.321 15.7946C25.3795 15.2647 25.5027 14.7502 25.743 14.2727C26.2544 13.256 27.3419 13.3023 27.8872 13.8568C27.9889 13.9615 28.0782 14.0971 28.1214 14.2326C28.3771 15.009 28.3925 15.7823 27.8626 16.4508C27.4929 16.916 26.9815 17.221 26.4116 17.4212C25.9772 17.5722 25.9772 17.5814 25.9772 18.0374C25.9772 18.4964 25.9833 18.9555 25.9741 19.4176C25.9741 19.5562 25.9648 19.7133 25.8971 19.8211C25.8324 19.9259 25.6907 20.0276 25.5767 20.0368C25.4781 20.046 25.3364 19.9413 25.2778 19.8458C25.2008 19.7256 25.1669 19.5685 25.1515 19.4237C25.133 19.205 25.1453 18.9832 25.1453 18.7644C25.1453 18.7644 25.1454 18.7644 25.1423 18.7644L25.1484 18.7675ZM23.7713 16.1458C23.7775 15.6714 23.6697 15.2123 23.5064 14.7749C23.3955 14.4791 23.0474 14.2912 22.7608 14.3251C22.4713 14.359 22.308 14.55 22.2433 14.9289C22.2371 14.969 22.2248 15.0059 22.2217 15.046C22.1755 15.733 22.4959 16.4138 23.1675 16.6017C23.7713 16.7712 23.7683 16.7774 23.7713 16.1458ZM27.4775 15.0367C27.459 14.9443 27.4436 14.7934 27.3974 14.6516C27.2896 14.3251 26.9414 14.2234 26.6796 14.4452C26.5748 14.5315 26.4886 14.6516 26.4239 14.7718C26.1497 15.2863 26.1651 15.8716 26.0573 16.4261C26.0357 16.534 26.0973 16.5864 26.2205 16.5709C26.8737 16.4816 27.4836 15.7669 27.4775 15.0398V15.0367Z" fill="#6EBFAE"/>
<path d="M76.2581 8.94678H72.3394C72.3394 9.11006 72.3394 9.27335 72.3455 9.43663C72.3517 10.0405 72.364 10.6443 72.3548 11.2481C72.3517 11.4206 72.3486 11.5931 72.3424 11.7718H76.255V8.94986L76.2581 8.94678Z" fill="#6EBFAE"/>
<path d="M96.073 43.9825V47.8704C95.9405 47.8735 95.808 47.8704 95.6786 47.8612C95.4075 47.8396 95.1333 47.8242 94.8622 47.815C94.3262 47.7965 93.787 47.7996 93.251 47.815V44.1088C93.5406 44.1119 93.8332 44.1119 94.1228 44.1026C94.3724 44.0965 94.6158 44.0318 94.8622 44.0071C94.9146 44.001 94.97 43.9979 95.0224 43.9948C95.3705 43.9856 95.7218 43.9702 96.073 43.9794V43.9825Z" fill="#6EBFAE"/>
<path d="M76.2581 9.15237C76.2581 9.31873 76.255 9.49127 76.2581 9.66379C76.255 9.85788 76.255 10.055 76.255 10.2491H72.3455C72.3455 10.055 72.3394 9.85788 72.3394 9.66379V9.51284C72.3394 9.28178 72.3517 9.05071 72.3794 8.82273C72.4718 8.01557 72.632 7.81226 73.2513 7.8369C73.9999 7.86463 74.7485 7.92008 75.4941 8.00943C76.0732 8.0772 76.2612 8.40067 76.2581 9.15546V9.15237Z" fill="#D24E2B"/>
<path d="M97.2807 44.7478C97.2714 45.5858 97.2345 46.4238 97.1883 47.2587C97.1698 47.6006 96.8956 47.8163 96.4797 47.8502C96.3441 47.8625 96.2086 47.8717 96.073 47.8717C95.9406 47.8748 95.8081 47.8717 95.6787 47.8625C95.4076 47.8409 95.1334 47.8255 94.8623 47.8163V44.0115C94.9147 44.0054 94.9701 44.0023 95.0225 43.9992C95.3706 43.99 95.7218 43.9746 96.073 43.9838C96.2702 43.9869 96.4674 43.9992 96.6645 44.0208C97.1236 44.0731 97.2869 44.2919 97.2807 44.7478Z" fill="#D24E2B"/>
</svg>
