<svg width="31" height="31" viewBox="0 0 31 31" fill="none" xmlns="http://www.w3.org/2000/svg">
<path fill-rule="evenodd" clip-rule="evenodd" d="M1.12763 1.12763C1.96447 0.290791 3.32125 0.290791 4.15809 1.12763L15.5 12.4695L26.8419 1.12763C27.6788 0.290791 29.0355 0.290791 29.8724 1.12763C30.7092 1.96447 30.7092 3.32125 29.8724 4.15809L18.5305 15.5L29.8724 26.8419C30.7092 27.6788 30.7092 29.0355 29.8724 29.8724C29.0355 30.7092 27.6788 30.7092 26.8419 29.8724L15.5 18.5305L4.15809 29.8724C3.32125 30.7092 1.96447 30.7092 1.12763 29.8724C0.290791 29.0355 0.290791 27.6788 1.12763 26.8419L12.4695 15.5L1.12763 4.15809C0.290791 3.32125 0.290791 1.96447 1.12763 1.12763Z" fill="#FCFBFA"/>
</svg>
