<svg width="39" height="30" viewBox="0 0 39 30" fill="none" xmlns="http://www.w3.org/2000/svg">
<path fill-rule="evenodd" clip-rule="evenodd" d="M0.428589 2.14286C0.428589 0.95939 1.38798 0 2.57145 0H36.8572C38.0406 0 39 0.95939 39 2.14286C39 3.32632 38.0406 4.28571 36.8572 4.28571H2.57145C1.38798 4.28571 0.428589 3.32632 0.428589 2.14286ZM0.428589 15C0.428589 13.8165 1.38798 12.8571 2.57145 12.8571H36.8572C38.0406 12.8571 39 13.8165 39 15C39 16.1835 38.0406 17.1429 36.8572 17.1429H2.57145C1.38798 17.1429 0.428589 16.1835 0.428589 15ZM0.428589 27.8571C0.428589 26.6737 1.38798 25.7143 2.57145 25.7143H36.8572C38.0406 25.7143 39 26.6737 39 27.8571C39 29.0406 38.0406 30 36.8572 30H2.57145C1.38798 30 0.428589 29.0406 0.428589 27.8571Z" fill="#E84D28"/>
</svg>
